# xmcd
#
# Track frame offsets: 
#        150
#        23612
#        38525
#        59118
#        77674
#        98352
#        109994
#        132018
#        151142
#        170457
#        182455
#        201965
#
# Disc length: 2890 seconds
#
# Revision: 0
# Processed by: cddbd v1.5.2PL0 Copyright (c) Steve Scherf et al.
# Submitted via: ExactAudioCopy v0.95b4
#
DISCID=8b0b480c
DTITLE=Susan Angeletti - Feel Like Rockin' Tonight
DYEAR=2002
DGENRE=Blues
TTITLE0=Piece Of My Heart
TTITLE1=Love Doctor
TTITLE2=The Other Side Of The River
TTITLE3=Feels Like Rain
TTITLE4=Don't Want Your Love
TTITLE5=Go To Hell
TTITLE6=Feel Love Tonight
TTITLE7=Bittersweet
TTITLE8=Nowhere To Run
TTITLE9=You're My Baby
TTITLE10=Love Is A Dangerous Thing
TTITLE11=Into The Flame
EXTD=
EXTT0=
EXTT1=
EXTT2=
EXTT3=
EXTT4=
EXTT5=
EXTT6=
EXTT7=
EXTT8=
EXTT9=
EXTT10=
EXTT11=
PLAYORDER=
